<svg width="131" height="132" viewBox="0 0 131 132" fill="none" xmlns="http://www.w3.org/2000/svg">
<path d="M33.4323 77.1574V41.7147C33.4323 34.0468 40.3236 28.6558 47.3028 29.8331L60.3467 16.7892C62.5445 14.5934 65.0341 12.6235 67.7057 10.9324L66.1016 10.2008C59.1883 7.05851 50.6779 8.70361 45.9905 10.0569C43.7417 10.7075 41.318 10.0879 39.6629 8.43276L32.7107 1.48054C31.2145 -0.0156482 28.7839 -0.0156482 27.2847 1.48054L1.12289 27.6433C-0.374297 29.1425 -0.374297 31.5732 1.12289 33.0694L11.6662 43.6136C12.0629 51.5253 16.2187 59.9427 21.8596 65.5847C21.8596 65.5847 27.5605 71.2876 33.4323 77.1574Z" fill="#FA9A0E"/>
<path d="M129.878 33.0694C131.374 31.5732 131.374 29.1425 129.878 27.6423L103.715 1.48054C102.216 -0.0156482 99.7849 -0.0156482 98.2888 1.48054L87.7445 12.0248C79.8328 12.4216 71.4154 16.5773 65.7734 22.2183C68.0842 23.0858 70.187 24.7239 71.7042 27.2026C79.7358 22.4691 89.6195 28.5048 89.6195 37.491V38.6913C97.4002 35.6849 105.791 41.5258 105.791 49.9362V70.8938C105.867 75.4613 106.335 80.3836 108.625 82.6734C110.839 84.8872 113.77 82.7024 114.577 80.9343L121.157 66.4602C124.3 59.546 122.655 51.0366 121.3 46.3491C120.651 44.1004 121.27 41.6767 122.925 40.0216L129.878 33.0694Z" fill="#FA9A0E"/>
<path d="M93.7842 45.5784C91.4764 45.6224 89.6194 47.5084 89.6194 49.8241V69.8632C89.6194 71.9311 88.0293 73.7101 85.9634 73.8051C83.7596 73.907 81.9436 72.15 81.9436 69.9712V37.4918C81.9436 35.1741 80.0816 33.2861 77.7729 33.2452C75.3952 33.2032 73.4492 35.2261 73.4492 37.6038V69.8632C73.4492 71.9311 71.8591 73.7101 69.7932 73.8051C67.5894 73.907 65.7734 72.15 65.7734 69.9712V33.3831C65.7734 31.0623 63.9104 29.1764 61.6017 29.1364C59.2249 29.0944 57.279 31.1163 57.279 33.494V69.9712C57.279 72.152 55.457 73.91 53.2532 73.8041C51.1893 73.7061 49.6032 71.9271 49.6032 69.8612V41.6036C49.6032 39.2829 47.7402 37.3979 45.4314 37.3569C43.0537 37.3149 41.1078 39.3378 41.1078 41.7155V85.7526C41.1078 87.1159 39.4487 87.7035 38.4912 86.7331C34.7453 82.9381 29.4591 77.4221 25.1695 77.4221C22.0412 77.4221 21.5114 81.0402 22.1921 82.8592L27.775 97.7481C30.4416 104.858 37.6217 109.712 41.8924 112.069C43.9423 113.2 45.2176 115.352 45.2176 117.692V127.523C45.2176 129.642 46.9356 131.361 49.0555 131.361H86.0534C88.1742 131.361 89.8913 129.641 89.8913 127.523V112.611C95.2054 106.739 98.1148 99.2063 98.1148 91.2306V49.9361C98.1148 47.5544 96.1659 45.5325 93.7842 45.5784Z" fill="#FA9A0E"/>
</svg>
