<svg width="131" height="132" viewBox="0 0 131 132" fill="none" xmlns="http://www.w3.org/2000/svg">
<path d="M127.162 54.3447H121.149V38.9932H113.474V54.3447H107.717C105.597 54.3447 103.879 56.0631 103.879 58.1826V131.358H127.162C129.282 131.358 131 129.64 131 127.521V58.1826C131 56.0631 129.282 54.3447 127.162 54.3447Z" fill="#FA9A0E"/>
<path d="M90.4463 31.3174H121.149V4.19629C121.149 2.07675 119.431 0.358398 117.312 0.358398H90.4463V31.3174Z" fill="#FA9A0E"/>
<path d="M92.3652 77.3721H73.1758C71.0562 77.3721 69.3379 79.0904 69.3379 81.21V131.358H96.2031V81.21C96.2031 79.0904 94.4848 77.3721 92.3652 77.3721Z" fill="#FA9A0E"/>
<path d="M57.8242 92.7236H38.6348C36.5152 92.7236 34.7969 94.442 34.7969 96.5615V131.358H61.6621V96.5615C61.6621 94.442 59.9438 92.7236 57.8242 92.7236Z" fill="#FA9A0E"/>
<path d="M23.2832 108.075H3.83789C1.71835 108.075 0 109.794 0 111.913V127.521C0 129.64 1.71835 131.358 3.83789 131.358H27.1211V111.913C27.1211 109.794 25.4027 108.075 23.2832 108.075Z" fill="#FA9A0E"/>
<path d="M64.0344 10.3177C63.3674 11.5658 63.4423 13.08 64.2255 14.2569L70.481 23.6416L64.2258 33.0265C63.4423 34.2035 63.3676 35.7177 64.0346 36.9657C64.7017 38.2138 66.0022 38.9932 67.4189 38.9932H82.7705V8.29004H67.4189C66.0022 8.29004 64.7017 9.06964 64.0344 10.3177Z" fill="#FA9A0E"/>
</svg>
