<svg width="148" height="132" viewBox="0 0 148 132" fill="none" xmlns="http://www.w3.org/2000/svg">
<path d="M135.563 13.1785C127.941 4.91147 117.482 0.358398 106.111 0.358398C97.6119 0.358398 89.828 3.04553 82.9754 8.34453C79.5176 11.0193 76.3845 14.2917 73.6221 18.1112C70.8608 14.2928 67.7265 11.0193 64.2676 8.34453C57.4161 3.04553 49.6322 0.358398 41.1327 0.358398C29.7618 0.358398 19.302 4.91147 11.6798 13.1785C4.14866 21.3488 0 32.5108 0 44.6096C0 57.0623 4.6407 68.4613 14.604 80.4837C23.5169 91.2379 36.3269 102.155 51.1611 114.796C56.2265 119.114 61.9681 124.007 67.9299 129.219C69.5049 130.599 71.5258 131.358 73.6221 131.358C75.7172 131.358 77.7393 130.599 79.312 129.222C85.2738 124.008 91.0188 119.112 96.0864 114.793C110.918 102.154 123.728 91.2379 132.641 80.4826C142.605 68.4613 147.244 57.0623 147.244 44.6085C147.244 32.5108 143.095 21.3488 135.563 13.1785Z" fill="#FA9A0E"/>
</svg>
