<svg width="147" height="96" viewBox="0 0 147 96" fill="none" xmlns="http://www.w3.org/2000/svg">
<path d="M73.5003 24.6465C60.4482 24.6465 49.8433 35.2514 49.8433 48.3035C49.8433 61.3557 60.4482 71.9606 73.5003 71.9606C86.5525 71.9606 97.1574 61.3557 97.1574 48.3035C97.1574 35.2514 86.5525 24.6465 73.5003 24.6465ZM71.7056 41.288C68.7689 41.288 66.3216 43.7353 66.3216 46.672H58.4903C58.6535 39.3302 64.527 33.4567 71.7056 33.4567V41.288Z" fill="#FA9A0E"/>
<path d="M145.287 43.4088C137.292 33.4565 108.741 0.989258 73.5 0.989258C38.2592 0.989258 9.70755 33.4565 1.7131 43.4088C-0.571032 46.1824 -0.571032 50.2612 1.7131 53.1979C9.70755 63.1502 38.2592 95.6174 73.5 95.6174C108.741 95.6174 137.292 63.1502 145.287 53.1979C147.571 50.4243 147.571 46.3455 145.287 43.4088ZM73.5 82.5653C54.5744 82.5653 39.2381 67.229 39.2381 48.3034C39.2381 29.3777 54.5744 14.0414 73.5 14.0414C92.4256 14.0414 107.762 29.3777 107.762 48.3034C107.762 67.229 92.4256 82.5653 73.5 82.5653Z" fill="#FA9A0E"/>
</svg>
