<svg width="116" height="132" viewBox="0 0 116 132" fill="none" xmlns="http://www.w3.org/2000/svg">
<path d="M3.08466 115.931L41.4638 123.607C42.6622 123.839 43.8054 123.505 44.6495 122.813C45.5379 122.082 46.055 120.995 46.055 119.844V11.8708C46.055 10.7202 45.5379 9.63334 44.6495 8.90234C43.765 8.17902 42.6031 7.89783 41.4638 8.10789L3.08466 15.7837C1.29312 16.1435 0 17.7178 0 19.5467V112.168C0 113.997 1.29312 115.571 3.08466 115.931ZM23.0275 58.1816C23.0275 56.0603 24.744 54.3437 26.8654 54.3437C28.9867 54.3437 30.7033 56.0603 30.7033 58.1816V65.8575C30.7033 67.9788 28.9867 69.6954 26.8654 69.6954C24.744 69.6954 23.0275 67.9788 23.0275 65.8575V58.1816Z" fill="#FA9A0E"/>
<path d="M86.4618 130.905C87.6925 131.565 89.211 131.507 90.401 130.714L113.429 115.362C114.497 114.65 115.138 113.45 115.138 112.169V19.5472C115.138 18.2654 114.497 17.0662 113.429 16.3541L90.401 1.00246C89.2241 0.219009 87.7063 0.144298 86.4618 0.811327C85.2137 1.47836 84.4341 2.7789 84.4341 4.19585V127.521C84.4341 128.937 85.2137 130.238 86.4618 130.905ZM95.9478 58.1822C95.9478 56.0609 97.6644 54.3443 99.7857 54.3443C101.907 54.3443 103.624 56.0609 103.624 58.1822V65.8581C103.624 67.9794 101.907 69.696 99.7857 69.696C97.6644 69.696 95.9478 67.9794 95.9478 65.8581V58.1822Z" fill="#FA9A0E"/>
<path d="M53.7305 15.709H76.7579V116.006H53.7305V15.709Z" fill="#FA9A0E"/>
</svg>
