<svg width="26" height="34" viewBox="0 0 26 34" fill="none" xmlns="http://www.w3.org/2000/svg">
<path d="M3.69321 33.1789H22.924C24.5146 33.1789 25.8086 31.8849 25.8086 30.2943V9.97378H19.0778C17.4872 9.97378 16.1932 8.67981 16.1932 7.08917V0.358398H3.69321C2.10257 0.358398 0.808594 1.65237 0.808594 3.24301V30.2943C0.808594 31.8849 2.10257 33.1789 3.69321 33.1789ZM7.53936 13.884H19.0778C19.6093 13.884 20.0394 14.3141 20.0394 14.8456C20.0394 15.3771 19.6093 15.8071 19.0778 15.8071H7.53936C7.00789 15.8071 6.57782 15.3771 6.57782 14.8456C6.57782 14.3141 7.00789 13.884 7.53936 13.884ZM7.53936 17.7302H19.0778C19.6093 17.7302 20.0394 18.1603 20.0394 18.6917C20.0394 19.2232 19.6093 19.6533 19.0778 19.6533H7.53936C7.00789 19.6533 6.57782 19.2232 6.57782 18.6917C6.57782 18.1603 7.00789 17.7302 7.53936 17.7302ZM7.53936 21.5763H19.0778C19.6093 21.5763 20.0394 22.0064 20.0394 22.5379C20.0394 23.0694 19.6093 23.4994 19.0778 23.4994H7.53936C7.00789 23.4994 6.57782 23.0694 6.57782 22.5379C6.57782 22.0064 7.00789 21.5763 7.53936 21.5763ZM7.53936 25.4225H15.2317C15.7631 25.4225 16.1932 25.8526 16.1932 26.384C16.1932 26.9155 15.7631 27.3456 15.2317 27.3456H7.53936C7.00789 27.3456 6.57782 26.9155 6.57782 26.384C6.57782 25.8526 7.00789 25.4225 7.53936 25.4225Z" fill="#333333"/>
<path d="M19.0782 8.05079H25.2456L18.1167 0.921875V7.08925C18.1167 7.61976 18.5477 8.05079 19.0782 8.05079Z" fill="#333333"/>
</svg>
