<svg width="25" height="34" viewBox="0 0 25 34" fill="none" xmlns="http://www.w3.org/2000/svg">
<path d="M2.88462 33.1789H22.1154C23.706 33.1789 25 31.8849 25 30.2943V9.97378H18.2692C16.6786 9.97378 15.3846 8.67981 15.3846 7.08917V0.358398H2.88462C1.29397 0.358398 0 1.65237 0 3.24301V30.2943C0 31.8849 1.29397 33.1789 2.88462 33.1789ZM6.73077 13.884H18.2692C18.8007 13.884 19.2308 14.3141 19.2308 14.8456C19.2308 15.3771 18.8007 15.8071 18.2692 15.8071H6.73077C6.1993 15.8071 5.76923 15.3771 5.76923 14.8456C5.76923 14.3141 6.1993 13.884 6.73077 13.884ZM6.73077 17.7302H18.2692C18.8007 17.7302 19.2308 18.1603 19.2308 18.6917C19.2308 19.2232 18.8007 19.6533 18.2692 19.6533H6.73077C6.1993 19.6533 5.76923 19.2232 5.76923 18.6917C5.76923 18.1603 6.1993 17.7302 6.73077 17.7302ZM6.73077 21.5763H18.2692C18.8007 21.5763 19.2308 22.0064 19.2308 22.5379C19.2308 23.0694 18.8007 23.4994 18.2692 23.4994H6.73077C6.1993 23.4994 5.76923 23.0694 5.76923 22.5379C5.76923 22.0064 6.1993 21.5763 6.73077 21.5763ZM6.73077 25.4225H14.4231C14.9546 25.4225 15.3846 25.8526 15.3846 26.384C15.3846 26.9155 14.9546 27.3456 14.4231 27.3456H6.73077C6.1993 27.3456 5.76923 26.9155 5.76923 26.384C5.76923 25.8526 6.1993 25.4225 6.73077 25.4225Z" fill="#FA9A0E"/>
<path d="M18.2696 8.05079H24.437L17.3081 0.921875V7.08925C17.3081 7.61976 17.7391 8.05079 18.2696 8.05079Z" fill="#FA9A0E"/>
</svg>
