<svg width="188" height="189" viewBox="0 0 188 189" fill="none" xmlns="http://www.w3.org/2000/svg">
<path fill-rule="evenodd" clip-rule="evenodd" d="M94 155.358C127.689 155.358 155 128.048 155 94.3584C155 60.669 127.689 33.3584 94 33.3584C60.3106 33.3584 33 60.669 33 94.3584C33 128.048 60.3106 155.358 94 155.358ZM93.9998 154.138C127.015 154.138 153.78 127.374 153.78 94.3584C153.78 61.3428 127.015 34.5784 93.9998 34.5784C60.9842 34.5784 34.2198 61.3428 34.2198 94.3584C34.2198 127.374 60.9842 154.138 93.9998 154.138Z" fill="#FA9A0E" fill-opacity="0.75"/>
<path fill-rule="evenodd" clip-rule="evenodd" d="M94 188.358C145.915 188.358 188 146.273 188 94.3584C188 42.4436 145.915 0.358398 94 0.358398C42.0852 0.358398 0 42.4436 0 94.3584C0 146.273 42.0852 188.358 94 188.358ZM93.9994 186.478C144.876 186.478 186.119 145.235 186.119 94.3582C186.119 43.4818 144.876 2.23822 93.9994 2.23822C43.123 2.23822 1.87942 43.4818 1.87942 94.3582C1.87942 145.235 43.123 186.478 93.9994 186.478Z" fill="#FA9A0E" fill-opacity="0.2"/>
</svg>
