<svg width="122" height="122" viewBox="0 0 122 122" fill="none" xmlns="http://www.w3.org/2000/svg">
<path fill-rule="evenodd" clip-rule="evenodd" d="M61.0001 100.585C82.8624 100.585 100.585 82.8624 100.585 61.0001C100.585 39.1379 82.8624 21.415 61.0001 21.415C39.1379 21.415 21.415 39.1379 21.415 61.0001C21.415 82.8624 39.1379 100.585 61.0001 100.585ZM60.9998 99.7932C82.4248 99.7932 99.7932 82.4248 99.7932 60.9998C99.7932 39.5748 82.4248 22.2064 60.9998 22.2064C39.5748 22.2064 22.2064 39.5748 22.2064 60.9998C22.2064 82.4248 39.5748 99.7932 60.9998 99.7932Z" fill="#FA9A0E" fill-opacity="0.75"/>
<path fill-rule="evenodd" clip-rule="evenodd" d="M61 122C94.6894 122 122 94.6894 122 61C122 27.3106 94.6894 0 61 0C27.3106 0 0 27.3106 0 61C0 94.6894 27.3106 122 61 122ZM60.9999 120.78C94.0155 120.78 120.78 94.0155 120.78 60.9999C120.78 27.9843 94.0155 1.21992 60.9999 1.21992C27.9843 1.21992 1.21992 27.9843 1.21992 60.9999C1.21992 94.0155 27.9843 120.78 60.9999 120.78Z" fill="#FA9A0E" fill-opacity="0.2"/>
</svg>
